<svg width="1440" height="900" viewBox="0 0 1440 900" fill="none" xmlns="http://www.w3.org/2000/svg">
<rect x="2" y="2" width="1436" height="896" rx="23" fill="white"/>
<path d="M3.5 64H1438" stroke="black" stroke-width="4"/>
<circle cx="46" cy="32" r="10" fill="black"/>
<circle cx="88" cy="32" r="10" fill="black"/>
<circle cx="130" cy="32" r="10" fill="black"/>
<path d="M4 66H266V898H29C15.1929 898 4 886.807 4 873V66Z" fill="#F6F6F6"/>
<rect x="16" y="259" width="236" height="371" rx="25" fill="#F9FAFE"/>
<rect x="16" y="811" width="236" height="55" rx="25" fill="#E2DAF9"/>
<circle cx="59.5" cy="302.5" r="27.5" fill="#E7EAF4"/>
<rect x="107" y="291" width="129" height="24" rx="10" fill="#E7EAF4"/>
<circle cx="59.5" cy="373.5" r="27.5" fill="#E7EAF4"/>
<rect x="107" y="362" width="129" height="24" rx="10" fill="#E7EAF4"/>
<circle cx="59.5" cy="444.5" r="27.5" fill="#E7EAF4"/>
<rect x="107" y="433" width="129" height="24" rx="10" fill="#E7EAF4"/>
<circle cx="59.5" cy="515.5" r="27.5" fill="#E7EAF4"/>
<rect x="107" y="504" width="129" height="24" rx="10" fill="#E7EAF4"/>
<circle cx="59.5" cy="586.5" r="27.5" fill="#E7EAF4"/>
<rect x="107" y="575" width="129" height="24" rx="10" fill="#E7EAF4"/>
<circle cx="59.5" cy="210.5" r="27.5" fill="#9672FF"/>
<rect x="107" y="199" width="129" height="24" rx="10" fill="#CBB9FC"/>
<rect x="302" y="98" width="1104" height="246" rx="25" fill="#F8F9FD"/>
<rect x="302" y="378" width="1104" height="488" rx="25" fill="#F8F9FD"/>
<rect x="336" y="132" width="321" height="178" rx="25" fill="white"/>
<circle cx="410.5" cy="206.5" r="50.5" fill="#9672FF"/>
<rect x="485" y="166" width="124" height="40" rx="10" fill="#CBB9FC"/>
<rect x="485" y="233" width="86" height="24" rx="10" fill="#F8F9FD"/>
<rect x="691" y="132" width="321" height="178" rx="25" fill="white"/>
<circle cx="765.5" cy="206.5" r="50.5" fill="#4DDFFD"/>
<rect x="840" y="166" width="124" height="40" rx="10" fill="#9FEEFE"/>
<rect x="840" y="233" width="86" height="24" rx="10" fill="#F8F9FD"/>
<rect x="1046" y="132" width="321" height="178" rx="25" fill="white"/>
<circle cx="1120.5" cy="206.5" r="50.5" fill="#F2B8EB"/>
<rect x="1195" y="166" width="124" height="40" rx="10" fill="#F6D0F2"/>
<rect x="1195" y="233" width="86" height="24" rx="10" fill="#F8F9FD"/>
<rect x="336" y="412" width="501" height="420" rx="25" fill="white"/>
<rect x="871" y="412" width="501" height="420" rx="25" fill="white"/>
<rect x="370" y="446" width="258" height="24" rx="10" fill="#E7EAF4"/>
<rect x="905" y="446" width="258" height="24" rx="10" fill="#E7EAF4"/>
<rect x="370" y="547" width="65" height="251" rx="10" fill="#CBB9FC"/>
<rect x="462" y="620" width="65" height="178" rx="10" fill="#CBB9FC"/>
<rect x="554" y="663" width="65" height="135" rx="10" fill="#CBB9FC"/>
<rect x="646" y="575" width="65" height="223" rx="10" fill="#CBB9FC"/>
<rect x="738" y="636" width="65" height="162" rx="10" fill="#CBB9FC"/>
<rect x="769" y="446" width="34" height="24" rx="10" fill="#E7EAF4"/>
<rect x="1304" y="446" width="34" height="24" rx="10" fill="#E7EAF4"/>
<circle cx="1121" cy="663" r="132" fill="#F6D0F2"/>
<path fill-rule="evenodd" clip-rule="evenodd" d="M106.686 108.851C100.438 115.1 100.438 125.23 106.686 131.479L123.88 148.673C130.129 154.921 140.259 154.921 146.508 148.673L163.701 131.479C169.95 125.23 169.95 115.1 163.701 108.851L146.508 91.6575C140.259 85.4091 130.129 85.4091 123.88 91.6575L106.686 108.851ZM125.558 134.114C127.884 136.376 131.134 137.507 135.308 137.507C138.08 137.507 140.485 136.982 142.525 135.93C144.564 134.847 146.125 133.333 147.208 131.39C148.292 129.446 148.833 127.168 148.833 124.555V119.967C148.833 119.617 148.722 119.346 148.499 119.155C148.308 118.931 148.053 118.82 147.734 118.82H136.933C136.614 118.82 136.343 118.931 136.12 119.155C135.929 119.378 135.834 119.648 135.834 119.967V121.496C135.834 121.847 135.929 122.134 136.12 122.357C136.343 122.548 136.614 122.643 136.933 122.643H144.102V124.651C144.102 127.582 143.305 129.781 141.712 131.246C140.119 132.712 137.984 133.445 135.308 133.445C132.663 133.445 130.592 132.728 129.095 131.294C127.597 129.829 126.785 127.566 126.657 124.507C126.625 123.552 126.609 122.134 126.609 120.254C126.609 118.342 126.625 116.924 126.657 116C126.785 112.973 127.597 110.743 129.095 109.309C130.592 107.875 132.663 107.158 135.308 107.158C137.602 107.158 139.418 107.668 140.756 108.688C142.126 109.707 143.05 110.934 143.528 112.368C143.656 112.718 143.783 112.957 143.911 113.085C144.07 113.18 144.309 113.228 144.628 113.228H147.447C147.734 113.228 147.973 113.148 148.164 112.989C148.356 112.83 148.451 112.623 148.451 112.368V112.272C148.387 111.03 147.862 109.691 146.874 108.258C145.886 106.824 144.405 105.613 142.429 104.625C140.485 103.606 138.112 103.096 135.308 103.096C131.166 103.096 127.932 104.227 125.606 106.489C123.28 108.751 122.037 111.842 121.878 115.761C121.846 116.685 121.83 118.183 121.83 120.254C121.83 122.293 121.846 123.791 121.878 124.746C122.037 128.697 123.264 131.82 125.558 134.114Z" fill="#8B5CF6"/>
<rect x="2" y="2" width="1436" height="896" rx="23" stroke="black" stroke-width="4"/>
</svg>
